<?xml version="1.0" encoding="UTF-8"?>
<svg version="1.1" xmlns="http://www.w3.org/2000/svg" width="225" height="225">
<path d="M0 0 C1.53545103 1.31647329 3.05643673 2.65000547 4.5625 4 C5.82126953 5.08087891 5.82126953 5.08087891 7.10546875 6.18359375 C28.27421529 24.66221214 42.4763012 50.72041626 44.5625 79 C45.80402573 102.22854593 41.80547388 123.50799846 30.5625 144 C29.81226563 145.38638672 29.81226563 145.38638672 29.046875 146.80078125 C16.16023523 168.7666445 -8.06926436 187.73846925 -32.65625 194.62109375 C-63.32727657 202.44220553 -94.12261454 200.0110752 -121.86328125 184.20703125 C-127.78817412 180.65725181 -133.11995358 176.38770223 -138.4375 172 C-139.17484375 171.42765625 -139.9121875 170.8553125 -140.671875 170.265625 C-146.96990374 165.17681778 -151.89205665 158.65981966 -156.4375 152 C-156.4375 151.34 -156.4375 150.68 -156.4375 150 C-157.0975 150 -157.7575 150 -158.4375 150 C-173.80255923 122.43439746 -181.09584668 91.18716247 -172.4375 60 C-163.94714238 31.45780022 -145.42021748 7.0717026 -119.29931641 -7.57519531 C-82.29340711 -27.56985459 -33.81353902 -26.55263801 0 0 Z " fill="#40565E" transform="translate(177.4375,24)"/>
<path d="M0 0 C1.6648577 1.28828275 3.31314758 2.59850679 4.9375 3.9375 C5.55625 4.4428125 6.175 4.948125 6.8125 5.46875 C20.99997757 18.34257224 29.1628083 38.21780169 30.1875 57.05078125 C30.96338525 78.2154616 23.84281012 97.82987557 9.9375 113.9375 C-3.18079277 127.53759985 -21.34145651 137.52912888 -40.48046875 138.40625 C-42.73674196 138.44058603 -44.99350207 138.45033925 -47.25 138.4375 C-48.43819336 138.43105469 -49.62638672 138.42460937 -50.85058594 138.41796875 C-60.4876035 138.21834669 -68.25104711 136.89878913 -77.0625 132.9375 C-77.69542969 132.65874023 -78.32835937 132.37998047 -78.98046875 132.09277344 C-99.69261422 122.7599055 -112.75885332 105.86921185 -121.1953125 85.15625 C-127.32725195 67.77249933 -125.67144367 46.24838855 -118.1796875 29.66796875 C-113.53497224 19.98451904 -107.77850548 12.35318191 -100.0625 4.9375 C-99.40765625 4.27492188 -98.7528125 3.61234375 -98.078125 2.9296875 C-70.62230195 -23.2354772 -29.40596296 -20.66039689 0 0 Z " fill="#3C3D39" transform="translate(159.0625,51.0625)"/>
<path d="M0 0 C1.53545103 1.31647329 3.05643673 2.65000547 4.5625 4 C5.82126953 5.08087891 5.82126953 5.08087891 7.10546875 6.18359375 C28.27421529 24.66221214 42.4763012 50.72041626 44.5625 79 C45.80402573 102.22854593 41.80547388 123.50799846 30.5625 144 C29.81226563 145.38638672 29.81226563 145.38638672 29.046875 146.80078125 C16.16023523 168.7666445 -8.06926436 187.73846925 -32.65625 194.62109375 C-63.32727657 202.44220553 -94.12261454 200.0110752 -121.86328125 184.20703125 C-127.78817412 180.65725181 -133.11995358 176.38770223 -138.4375 172 C-139.17484375 171.42765625 -139.9121875 170.8553125 -140.671875 170.265625 C-146.96990374 165.17681778 -151.89205665 158.65981966 -156.4375 152 C-156.4375 151.34 -156.4375 150.68 -156.4375 150 C-157.0975 150 -157.7575 150 -158.4375 150 C-173.80255923 122.43439746 -181.09584668 91.18716247 -172.4375 60 C-163.94714238 31.45780022 -145.42021748 7.0717026 -119.29931641 -7.57519531 C-82.29340711 -27.56985459 -33.81353902 -26.55263801 0 0 Z M-132.4375 18 C-132.4375 18.66 -132.4375 19.32 -132.4375 20 C-133.0046875 20.22300781 -133.571875 20.44601563 -134.15625 20.67578125 C-140.91013239 24.5962712 -146.00459453 33.13418906 -149.4375 40 C-149.98148438 41.00546875 -150.52546875 42.0109375 -151.0859375 43.046875 C-162.65799514 65.01913634 -165.83451221 92.89157548 -158.57421875 116.86328125 C-157.05978918 121.04227419 -155.45201259 125.03862637 -153.4375 129 C-153.09203125 129.77214844 -152.7465625 130.54429687 -152.390625 131.33984375 C-145.36977732 146.55969505 -131.4833509 163.05324777 -116.4375 171 C-113.76463321 171.68988828 -113.76463321 171.68988828 -111.4375 172 C-111.4375 172.66 -111.4375 173.32 -111.4375 174 C-108.55296047 175.31794011 -105.65325894 176.59889075 -102.75 177.875 C-101.95271484 178.23980469 -101.15542969 178.60460937 -100.33398438 178.98046875 C-79.59456241 187.99760873 -51.34125847 186.82272005 -30.46484375 178.8671875 C-27.70838578 177.69637131 -25.0835224 176.40152819 -22.4375 175 C-21.48617187 174.50886719 -20.53484375 174.01773438 -19.5546875 173.51171875 C-7.86194953 167.11582161 2.23693461 158.39699793 10.5625 148 C11.01882812 147.43023437 11.47515625 146.86046875 11.9453125 146.2734375 C15.76017193 141.21095108 18.61133331 135.59168425 21.5625 130 C21.93503906 129.36578125 22.30757812 128.7315625 22.69140625 128.078125 C32.40817281 110.85467996 33.0173771 85.84330004 28.5625 67 C28.34464844 66.07058594 28.12679687 65.14117187 27.90234375 64.18359375 C25.7492253 55.72407373 22.62590784 47.72047489 18.5625 40 C17.9025 40 17.2425 40 16.5625 40 C16.4490625 39.41476563 16.335625 38.82953125 16.21875 38.2265625 C12.99053587 27.27369312 -0.36975895 16.1365809 -9.4375 10 C-10.0975 10 -10.7575 10 -11.4375 10 C-11.4375 9.34 -11.4375 8.68 -11.4375 8 C-47.1992596 -13.90271902 -102.14953013 -16.36341535 -132.4375 18 Z " fill="#3C3B3C" transform="translate(177.4375,24)"/>
<path d="M0 0 C1.6648577 1.28828275 3.31314758 2.59850679 4.9375 3.9375 C5.55625 4.4428125 6.175 4.948125 6.8125 5.46875 C20.99997757 18.34257224 29.1628083 38.21780169 30.1875 57.05078125 C30.96338525 78.2154616 23.84281012 97.82987557 9.9375 113.9375 C-3.18079277 127.53759985 -21.34145651 137.52912888 -40.48046875 138.40625 C-42.73674196 138.44058603 -44.99350207 138.45033925 -47.25 138.4375 C-48.43819336 138.43105469 -49.62638672 138.42460937 -50.85058594 138.41796875 C-60.4876035 138.21834669 -68.25104711 136.89878913 -77.0625 132.9375 C-77.69542969 132.65874023 -78.32835937 132.37998047 -78.98046875 132.09277344 C-99.69261422 122.7599055 -112.75885332 105.86921185 -121.1953125 85.15625 C-127.32725195 67.77249933 -125.67144367 46.24838855 -118.1796875 29.66796875 C-113.53497224 19.98451904 -107.77850548 12.35318191 -100.0625 4.9375 C-99.40765625 4.27492188 -98.7528125 3.61234375 -98.078125 2.9296875 C-70.62230195 -23.2354772 -29.40596296 -20.66039689 0 0 Z M-70.0625 7.9375 C-70.97902344 8.35 -71.89554688 8.7625 -72.83984375 9.1875 C-88.33849461 16.83900786 -97.2316613 29.12855066 -103.1171875 44.9921875 C-107.51941779 58.70822733 -105.43735693 74.20864133 -99.4375 87.125 C-90.78637506 103.03122484 -78.23573333 112.52708612 -61.0625 117.9375 C-46.58893987 122.01095232 -31.53019755 118.26767862 -18.4375 111.875 C-7.27060034 105.53630092 0.41740498 96.42769779 5.9375 84.9375 C6.370625 84.07382813 6.80375 83.21015625 7.25 82.3203125 C11.98497216 70.97610836 11.95294946 54.87364868 8.3125 43.1875 C7.5701206 41.41602916 6.77949278 39.66384998 5.9375 37.9375 C5.54820312 37.03515625 5.15890625 36.1328125 4.7578125 35.203125 C-2.13203078 20.77114558 -15.26288336 10.98843648 -30 5.5 C-42.80835295 1.93526562 -58.00010655 2.18494277 -70.0625 7.9375 Z " fill="#BCF307" transform="translate(159.0625,51.0625)"/>
<path d="M0 0 C0.7734375 -0.00773437 1.546875 -0.01546875 2.34375 -0.0234375 C5.00698365 0.46868176 5.86561587 1.24929794 7.5 3.375 C8.375 6.25 8.375 6.25 8.5 9.375 C7.50664799 11.04563747 6.50568242 12.71175599 5.5 14.375 C4.94995796 17.36238429 4.69142414 20.34521796 4.5 23.375 C5.4178125 23.32859375 6.335625 23.2821875 7.28125 23.234375 C20.67004049 22.84058704 20.67004049 22.84058704 26.5 27.375 C31.51705063 32.52407827 32.73237346 37.22375286 32.67578125 44.21289062 C32.65064453 45.43782227 32.65064453 45.43782227 32.625 46.6875 C32.61597656 47.52345703 32.60695313 48.35941406 32.59765625 49.22070312 C32.57420989 51.27225969 32.53834266 53.32366777 32.5 55.375 C35.14 55.375 37.78 55.375 40.5 55.375 C40.5 58.345 40.5 61.315 40.5 64.375 C37.86 64.375 35.22 64.375 32.5 64.375 C32.53480469 64.96667969 32.56960937 65.55835938 32.60546875 66.16796875 C32.77323815 71.06523752 32.81859893 74.46379412 29.5 78.375 C26.4145146 80.2877652 24.04534672 80.6308444 20.44360352 80.6496582 C19.43898575 80.65919022 18.43436798 80.66872223 17.39930725 80.67854309 C16.32007492 80.67763168 15.24084259 80.67672028 14.12890625 80.67578125 C13.01442612 80.68006638 11.89994598 80.6843515 10.75169373 80.68876648 C8.39558593 80.69450753 6.03946041 80.69501171 3.68334961 80.69067383 C0.07960759 80.687515 -3.52331267 80.71097291 -7.12695312 80.73632812 C-9.41666563 80.73860124 -11.70638034 80.73930456 -13.99609375 80.73828125 C-15.07330185 80.747491 -16.15050995 80.75670074 -17.26036072 80.76618958 C-26.68414889 80.70794334 -26.68414889 80.70794334 -30.5 77.375 C-32.70914 74.06129 -32.72481553 73.0303979 -32.625 69.1875 C-32.60695313 68.28644531 -32.58890625 67.38539063 -32.5703125 66.45703125 C-32.54710938 65.76996094 -32.52390625 65.08289063 -32.5 64.375 C-35.14 64.375 -37.78 64.375 -40.5 64.375 C-40.5 61.405 -40.5 58.435 -40.5 55.375 C-37.86 55.375 -35.22 55.375 -32.5 55.375 C-32.58701172 53.456875 -32.58701172 53.456875 -32.67578125 51.5 C-32.72271247 49.79170344 -32.768209 48.08336705 -32.8125 46.375 C-32.85439453 45.53582031 -32.89628906 44.69664063 -32.93945312 43.83203125 C-33.06278229 37.46824659 -31.64243912 33.25921626 -27.5 28.375 C-21.99486202 24.08099238 -18.19962886 23.24931533 -11.3125 23.3125 C-10.04019531 23.32152344 -8.76789063 23.33054687 -7.45703125 23.33984375 C-5.99330078 23.35724609 -5.99330078 23.35724609 -4.5 23.375 C-4.61409593 21.91577307 -4.74165544 20.45759402 -4.875 19 C-4.97941406 17.78183594 -4.97941406 17.78183594 -5.0859375 16.5390625 C-5.32892588 14.17165809 -5.32892588 14.17165809 -7.5 12.375 C-7.80078125 10.31640625 -7.80078125 10.31640625 -7.8125 7.9375 C-7.82925781 7.15503906 -7.84601563 6.37257813 -7.86328125 5.56640625 C-7.5 3.375 -7.5 3.375 -6.26171875 1.61328125 C-4.0379325 0.05022085 -2.70079363 -0.02700794 0 0 Z " fill="#BFEE21" transform="translate(112.5,72.625)"/>
<path d="M0 0 C1.2757489 -0.00574036 1.2757489 -0.00574036 2.57727051 -0.01159668 C4.37265204 -0.01431458 6.16807324 -0.00696182 7.96337891 0.00976562 C10.70955793 0.03117833 13.45312097 0.00996129 16.19921875 -0.015625 C17.94531827 -0.0129817 19.69141616 -0.00785667 21.4375 0 C22.25738403 -0.00809692 23.07726807 -0.01619385 23.92199707 -0.02453613 C27.49498854 0.03415431 29.64619775 0.18417481 32.74316406 2.06152344 C34.81153196 5.52340458 34.71775023 8.66762945 34.609375 12.578125 C34.60371521 13.34932678 34.59805542 14.12052856 34.59222412 14.9151001 C34.56988589 17.37112279 34.51969763 19.82567055 34.46875 22.28125 C34.44868154 23.94919763 34.43043137 25.61716821 34.4140625 27.28515625 C34.37002992 31.36775323 34.30102283 35.44925181 34.21875 39.53125 C30.58875 39.53125 26.95875 39.53125 23.21875 39.53125 C23.21875 36.89125 23.21875 34.25125 23.21875 31.53125 C14.96875 31.53125 6.71875 31.53125 -1.78125 31.53125 C-1.78125 34.17125 -1.78125 36.81125 -1.78125 39.53125 C-5.41125 39.53125 -9.04125 39.53125 -12.78125 39.53125 C-12.88023615 34.62001411 -12.95277247 29.70936062 -13.00097656 24.79736328 C-13.02107393 23.12701298 -13.04835683 21.45673287 -13.08300781 19.78662109 C-13.13161119 17.3836128 -13.15423656 14.98153566 -13.171875 12.578125 C-13.19252014 11.83318787 -13.21316528 11.08825073 -13.23443604 10.32073975 C-13.23583908 7.06800343 -12.98648756 4.87476144 -11.30566406 2.06152344 C-7.57769533 -0.19833227 -4.28513405 -0.04231867 0 0 Z " fill="#383F21" transform="translate(101.78125,104.46875)"/>
<path d="M0 0 C0.87931183 -0.00570007 1.75862366 -0.01140015 2.6645813 -0.01727295 C4.52914216 -0.02673804 6.39371986 -0.0332629 8.25830078 -0.03710938 C11.11390345 -0.04681076 13.96878534 -0.0778178 16.82421875 -0.109375 C18.63280821 -0.11590514 20.44140284 -0.12115557 22.25 -0.125 C23.53449539 -0.1435202 23.53449539 -0.1435202 24.84494019 -0.16241455 C25.64231598 -0.15941345 26.43969177 -0.15641235 27.26123047 -0.15332031 C28.31260696 -0.15878876 28.31260696 -0.15878876 29.38522339 -0.16436768 C31.86807184 0.32288744 32.74903145 1.19971565 34.2578125 3.203125 C34.51934319 5.79087271 34.60739688 8.13212153 34.55078125 10.71484375 C34.54653641 11.44306839 34.54229156 12.17129303 34.53791809 12.92158508 C34.52113983 15.24497627 34.48349105 17.5674965 34.4453125 19.890625 C34.43026447 21.46678434 34.41657627 23.04295729 34.40429688 24.61914062 C34.37123935 28.48080377 34.31946444 32.34181678 34.2578125 36.203125 C31.2878125 36.203125 28.3178125 36.203125 25.2578125 36.203125 C25.2578125 33.893125 25.2578125 31.583125 25.2578125 29.203125 C17.9978125 28.543125 10.7378125 27.883125 3.2578125 27.203125 C5.01138633 22.81919043 6.4070713 20.74495498 9.2578125 17.203125 C10.30232688 15.22600849 11.31479388 13.23061504 12.2578125 11.203125 C12.9178125 11.203125 13.5778125 11.203125 14.2578125 11.203125 C14.2578125 12.523125 14.2578125 13.843125 14.2578125 15.203125 C13.9278125 15.533125 13.5978125 15.863125 13.2578125 16.203125 C15.64631353 19.30068744 15.64631353 19.30068744 18.2578125 22.203125 C21.75860611 22.59210207 23.61229494 22.63928551 26.5703125 20.640625 C28.72578384 17.52716639 28.9706176 14.93665864 29.2578125 11.203125 C25.43263737 8.81239055 21.66115726 8.64345948 17.2578125 8.203125 C17.2578125 8.863125 17.2578125 9.523125 17.2578125 10.203125 C16.5359375 9.996875 15.8140625 9.790625 15.0703125 9.578125 C11.81139665 9.14360289 10.17476746 9.78631831 7.2578125 11.203125 C6.9278125 10.213125 6.5978125 9.223125 6.2578125 8.203125 C4.31858828 8.65410738 2.38147656 9.11418059 0.4453125 9.578125 C-0.63363281 9.83335938 -1.71257812 10.08859375 -2.82421875 10.3515625 C-5.89752093 11.09045381 -5.89752093 11.09045381 -8.7421875 13.203125 C-8.93616226 11.22458242 -9.12220071 9.2452602 -9.3046875 7.265625 C-9.40910156 6.16347656 -9.51351562 5.06132813 -9.62109375 3.92578125 C-9.66105469 3.02730469 -9.70101562 2.12882812 -9.7421875 1.203125 C-7.62562962 -0.91343288 -2.92814513 0.0144637 0 0 Z " fill="#3D3D3A" transform="translate(100.7421875,106.796875)"/>
<path d="M0 0 C4.21779303 1.50635465 5.7747674 4.24012422 8 8 C8.92188461 10.76565382 9.11785222 12.38283702 9.09765625 15.23046875 C9.09443359 16.03291016 9.09121094 16.83535156 9.08789062 17.66210938 C9.07532227 18.91217773 9.07532227 18.91217773 9.0625 20.1875 C9.05798828 21.03248047 9.05347656 21.87746094 9.04882812 22.74804688 C9.03705403 24.83206155 9.0191189 26.91603977 9 29 C11.64 29 14.28 29 17 29 C17 31.97 17 34.94 17 38 C14.36 38 11.72 38 9 38 C9.05220703 38.88751953 9.05220703 38.88751953 9.10546875 39.79296875 C9.27563175 44.7601076 9.16855209 47.90728689 6 52 C5.67 51.34 5.34 50.68 5 50 C3.7625 50.20625 2.525 50.4125 1.25 50.625 C-2.11909835 51.06107124 -4.12841921 51.03403639 -7 49 C-7 48.67 -7 48.34 -7 48 C-4.69 47.67 -2.38 47.34 0 47 C-0.78246094 46.93941406 -1.56492188 46.87882812 -2.37109375 46.81640625 C-3.38300781 46.73261719 -4.39492187 46.64882812 -5.4375 46.5625 C-6.44683594 46.48128906 -7.45617187 46.40007812 -8.49609375 46.31640625 C-11 46 -11 46 -12 45 C-12 42.69 -12 40.38 -12 38 C-19.59 38 -27.18 38 -35 38 C-35 40.64 -35 43.28 -35 46 C-39.29 46 -43.58 46 -48 46 C-48 33.13 -48 20.26 -48 7 C-46.68 6.67 -45.36 6.34 -44 6 C-44 5.34 -44 4.68 -44 4 C-29.48 3.67 -14.96 3.34 0 3 C0 3.99 0 4.98 0 6 C0.99 5.34 1.98 4.68 3 4 C2.505 3.525625 2.01 3.05125 1.5 2.5625 C0 1 0 1 0 0 Z M-45.52441406 7.53027344 C-47.59278196 10.99215458 -47.49900023 14.13637945 -47.390625 18.046875 C-47.38496521 18.81807678 -47.37930542 19.58927856 -47.37347412 20.3838501 C-47.35113589 22.83987279 -47.30094763 25.29442055 -47.25 27.75 C-47.22993154 29.41794763 -47.21168137 31.08591821 -47.1953125 32.75390625 C-47.15127992 36.83650323 -47.08227283 40.91800181 -47 45 C-43.37 45 -39.74 45 -36 45 C-36 42.36 -36 39.72 -36 37 C-27.75 37 -19.5 37 -11 37 C-11 39.64 -11 42.28 -11 45 C-7.37 45 -3.74 45 0 45 C0.09898615 40.08876411 0.17152247 35.17811062 0.21972656 30.26611328 C0.23982393 28.59576298 0.26710683 26.92548287 0.30175781 25.25537109 C0.35036119 22.8523628 0.37298656 20.45028566 0.390625 18.046875 C0.41127014 17.30193787 0.43191528 16.55700073 0.45318604 15.78948975 C0.45458908 12.53675343 0.20523756 10.34351144 -1.47558594 7.53027344 C-5.20355467 5.27041773 -8.49611595 5.42643133 -12.78125 5.46875 C-13.63174927 5.4649231 -14.48224854 5.46109619 -15.35852051 5.45715332 C-17.15390204 5.45443542 -18.94932324 5.46178818 -20.74462891 5.47851562 C-23.49080793 5.49992833 -26.23437097 5.47871129 -28.98046875 5.453125 C-30.72656827 5.4557683 -32.47266616 5.46089333 -34.21875 5.46875 C-35.03863403 5.46065308 -35.85851807 5.45255615 -36.70324707 5.44421387 C-40.27623854 5.50290431 -42.42744775 5.65292481 -45.52441406 7.53027344 Z " fill="#BCF207" transform="translate(136,99)"/>
<path d="M0 0 C0.99 0 1.98 0 3 0 C3 11.22 3 22.44 3 34 C7.95 34.33 12.9 34.66 18 35 C18 32.36 18 29.72 18 27 C25.59 27 33.18 27 41 27 C41.495 30.465 41.495 30.465 42 34 C42.78246094 34.04898438 43.56492188 34.09796875 44.37109375 34.1484375 C45.38300781 34.22320312 46.39492187 34.29796875 47.4375 34.375 C48.44683594 34.44460937 49.45617187 34.51421875 50.49609375 34.5859375 C51.32238281 34.72257812 52.14867187 34.85921875 53 35 C53.33 35.66 53.66 36.32 54 37 C50.535 37.495 50.535 37.495 47 38 C50.73486879 38.5745952 54.21293268 39 58 39 C57.67 39.99 57.34 40.98 57 42 C32.745 41.505 32.745 41.505 8 41 C8 40.34 8 39.68 8 39 C6.88625 39.3403125 6.88625 39.3403125 5.75 39.6875 C3 40 3 40 0.87109375 38.8984375 C-1.69093454 36.29896829 -1.56071996 34.53543001 -1.6875 30.9375 C-1.73823184 26.81452109 -1.73823184 26.81452109 -3 23 C-2.70351562 22.32582031 -2.40703125 21.65164062 -2.1015625 20.95703125 C-0.58388969 16.88299466 -0.53848215 13.00274749 -0.375 8.6875 C-0.33632812 7.85154297 -0.29765625 7.01558594 -0.2578125 6.15429688 C-0.16404841 4.10320741 -0.08095755 2.05163485 0 0 Z " fill="#BDF208" transform="translate(83,110)"/>
<path d="M0 0 C0.66 0 1.32 0 2 0 C2.19335938 0.81984375 2.38671875 1.6396875 2.5859375 2.484375 C2.84632812 3.56203125 3.10671875 4.6396875 3.375 5.75 C3.63023438 6.81734375 3.88546875 7.8846875 4.1484375 8.984375 C5.38289415 13.35593708 6.79911828 15.84811137 10 19 C11.30890892 21.05115604 12.51168197 23.14544344 13.71875 25.2578125 C14.97031717 27.31060985 14.97031717 27.31060985 18 28 C17.938125 27.34 17.87625 26.68 17.8125 26 C18.06817753 21.90915946 19.45695044 18.79333016 21 15 C18.525 14.505 18.525 14.505 16 14 C16 13.67 16 13.34 16 13 C18.64 13 21.28 13 24 13 C24.03738281 13.67546875 24.07476562 14.3509375 24.11328125 15.046875 C24.21189453 16.38492188 24.21189453 16.38492188 24.3125 17.75 C24.37050781 18.63171875 24.42851563 19.5134375 24.48828125 20.421875 C25.0756737 23.3812568 25.93461159 24.82177564 28 27 C30.93861243 27.97953748 32.87886873 28.13747364 35.94287109 28.16113281 C36.94756439 28.17074036 37.95225769 28.1803479 38.98739624 28.19024658 C40.61398666 28.1966214 40.61398666 28.1966214 42.2734375 28.203125 C43.94728012 28.21167511 43.94728012 28.21167511 45.65493774 28.22039795 C48.01701916 28.22984834 50.37911376 28.23638208 52.74121094 28.24023438 C56.35374951 28.24994289 59.96571991 28.28096782 63.578125 28.3125 C65.87239245 28.31902981 68.16666398 28.32428037 70.4609375 28.328125 C72.08145523 28.3466452 72.08145523 28.3466452 73.73471069 28.36553955 C80.9213192 28.47920369 80.9213192 28.47920369 87 25 C88.03179109 22.06568989 88.03179109 22.06568989 88.3125 18.8125 C88.45300781 17.72582031 88.59351563 16.63914063 88.73828125 15.51953125 C88.86783203 14.27236328 88.86783203 14.27236328 89 13 C91.64 13 94.28 13 97 13 C97 10.03 97 7.06 97 4 C97.99 4.495 97.99 4.495 99 5 C99.1953125 11.0546875 99.1953125 11.0546875 99 13 C97 15 97 15 93.875 15.125 C92.92625 15.08375 91.9775 15.0425 91 15 C91 15.99 91 16.98 91 18 C92.11375 17.95875 93.2275 17.9175 94.375 17.875 C98 18 98 18 100 20 C102.10820797 19.6814823 102.10820797 19.6814823 104 19 C102.58419794 23.55374932 100.04489128 26.37907589 96.6875 29.625 C96.21376953 30.10195312 95.74003906 30.57890625 95.25195312 31.0703125 C92.4002813 33.87907271 89.61216329 36.24676412 86 38 C85.34 37.67 84.68 37.34 84 37 C84 36.34 84 35.68 84 35 C84.99 34.67 85.98 34.34 87 34 C87.495 33.01 87.495 33.01 88 32 C87.31397202 31.99191315 86.62794403 31.98382629 85.92112732 31.97549438 C78.76681298 31.88929114 71.61277067 31.78978051 64.45874023 31.68261719 C61.79045663 31.64332411 59.1222642 31.60952379 56.45385742 31.578125 C52.61358618 31.53234788 48.7736609 31.47437301 44.93359375 31.4140625 C43.15038979 31.39673569 43.15038979 31.39673569 41.3311615 31.37905884 C35.5632575 31.27678947 30.39592893 31.14738364 25 29 C23.5625 26.875 23.5625 26.875 23 25 C22.79029441 29.14093698 22.79029441 29.14093698 24 33 C23.67 33.66 23.34 34.32 23 35 C12.60644591 30.60272712 5.66328795 19.530607 1.4375 9.5 C0.16708636 6.20257082 -0.14298771 3.53117475 0 0 Z " fill="#3B3F2F" transform="translate(56,124)"/>
<path d="M0 0 C0.33 0.66 0.66 1.32 1 2 C2.98 1.34 4.96 0.68 7 0 C7 0.66 7 1.32 7 2 C8.32 2 9.64 2 11 2 C11 1.34 11 0.68 11 0 C18.15789474 -0.35789474 18.15789474 -0.35789474 21.5 1.0625 C23 3 23 3 23.5625 6.375 C23 10 23 10 20.875 12.9375 C18 15 18 15 15 15.6875 C10.61712334 14.68309077 9.55360081 12.64800116 7 9 C6.67 8.34 6.34 7.68 6 7 C6.66 7 7.32 7 8 7 C8 5.68 8 4.36 8 3 C6.07889725 4.73814058 4.88566434 6.20788302 3.625 8.5 C1.70784007 11.44947682 0.22500664 12.6178543 -3 14 C-6.23092228 13.92307328 -7.51071461 13.45666636 -9.875 11.25 C-11 9 -11 9 -10.9375 6.4375 C-9.8033326 3.48866475 -8.69635676 2.58609221 -6 1 C-3 0 -3 0 0 0 Z " fill="#3D491B" transform="translate(107,115)"/>
<path d="M0 0 C2.31 0 4.62 0 7 0 C9.00519881 2.83086891 9.08216415 4.85677377 8.6875 8.1875 C8 12 8 12 7 13 C6.76636119 14.84891946 6.58696365 16.70488031 6.4375 18.5625 C6.35371094 19.57441406 6.26992187 20.58632812 6.18359375 21.62890625 C6.09271484 22.80259766 6.09271484 22.80259766 6 24 C6.50402344 23.84015625 7.00804688 23.6803125 7.52734375 23.515625 C10.89186242 22.81401921 14.12767823 22.79029116 17.5625 22.75 C18.57086914 22.7190625 18.57086914 22.7190625 19.59960938 22.6875 C22.55129046 22.6640507 24.51284251 22.65521259 26.96484375 24.390625 C28 26 28 26 28 28 C28.99 28.33 29.98 28.66 31 29 C29.02 29.99 29.02 29.99 27 31 C27 30.01 27 29.02 27 28 C26.01 28.495 26.01 28.495 25 29 C22.49316358 29.09875303 20.0147704 29.13985245 17.5078125 29.1328125 C16.39428909 29.13424759 16.39428909 29.13424759 15.25827026 29.13571167 C13.68633947 29.13639265 12.11440587 29.13454406 10.54248047 29.13037109 C8.14153679 29.12503674 5.74078147 29.13031099 3.33984375 29.13671875 C1.81249959 29.13605766 0.28515554 29.13477585 -1.2421875 29.1328125 C-2.31737137 29.13584885 -2.31737137 29.13584885 -3.41427612 29.13894653 C-6.75164091 29.12333716 -9.80904453 29.03554372 -13 28 C-13 27.34 -13 26.68 -13 26 C-12.16855469 25.89042969 -11.33710937 25.78085938 -10.48046875 25.66796875 C-9.39378906 25.50941406 -8.30710937 25.35085937 -7.1875 25.1875 C-5.56908203 24.96126953 -5.56908203 24.96126953 -3.91796875 24.73046875 C-0.91957109 23.97986586 0.26165582 23.5190742 2 21 C2 17.88772805 1.54372951 15.05847848 1 12 C2.32 11.34 3.64 10.68 5 10 C4.071875 9.6596875 4.071875 9.6596875 3.125 9.3125 C0.33679458 7.59037313 -0.16239065 6.12199848 -1 3 C-0.67 2.01 -0.34 1.02 0 0 Z " fill="#BDF20B" transform="translate(109,74)"/>
<path d="M0 0 C0.33 0 0.66 0 1 0 C1.1972935 3.41617497 1.38112295 6.83294593 1.5625 10.25 C1.61857422 11.21808594 1.67464844 12.18617187 1.73242188 13.18359375 C1.78076172 14.11816406 1.82910156 15.05273438 1.87890625 16.015625 C1.9260376 16.87446289 1.97316895 17.73330078 2.02172852 18.61816406 C2.00067907 20.92556169 1.56445811 22.77932333 1 25 C1.33 25.33 1.66 25.66 2 26 C2.20350619 29.07068226 2.31947611 32.13932606 2.42578125 35.21484375 C2.70042248 38.080279 2.70042248 38.080279 4.79296875 39.37890625 C7.25961301 40.18059573 7.25961301 40.18059573 11 40 C11 40.66 11 41.32 11 42 C27.17 42 43.34 42 60 42 C57.48475085 44.51524915 56.64955087 44.25657713 53.1706543 44.2746582 C52.16588547 44.28419022 51.16111664 44.29372223 50.12590027 44.30354309 C49.03634537 44.30263168 47.94679047 44.30172028 46.82421875 44.30078125 C45.70690872 44.30506638 44.58959869 44.3093515 43.43843079 44.31376648 C41.07037026 44.31951859 38.70229207 44.3200036 36.33422852 44.31567383 C32.71274523 44.31252197 29.09208483 44.33593482 25.47070312 44.36132812 C23.17187603 44.36360184 20.87304674 44.36430428 18.57421875 44.36328125 C17.49073654 44.372491 16.40725433 44.38170074 15.29093933 44.39118958 C5.80705508 44.332945 5.80705508 44.332945 2 41 C-0.20914 37.68629 -0.22481553 36.6553979 -0.125 32.8125 C-0.10695313 31.91144531 -0.08890625 31.01039063 -0.0703125 30.08203125 C-0.04710938 29.39496094 -0.02390625 28.70789063 0 28 C-2.64 28 -5.28 28 -8 28 C-8 25.03 -8 22.06 -8 19 C-5.36 19 -2.72 19 0 19 C0 12.73 0 6.46 0 0 Z " fill="#ABCD38" transform="translate(80,109)"/>
<path d="M0 0 C0.66 1.32 1.32 2.64 2 4 C1.67 4.99 1.34 5.98 1 7 C0.58488159 6.51300629 0.16976318 6.02601257 -0.25793457 5.52426147 C-3.21204636 2.93949128 -6.97473556 3.57410931 -10.71875 3.6015625 C-12.00017883 3.59725723 -12.00017883 3.59725723 -13.30749512 3.59286499 C-15.11304385 3.59082419 -16.91861469 3.59635517 -18.72412109 3.60888672 C-21.48976012 3.62494056 -24.25393775 3.60903901 -27.01953125 3.58984375 C-28.77344073 3.59182618 -30.5273493 3.59566985 -32.28125 3.6015625 C-33.52352356 3.59245346 -33.52352356 3.59245346 -34.79089355 3.5831604 C-39.02436521 3.52022531 -39.02436521 3.52022531 -42.71504211 5.3021698 C-44.87216093 8.15239665 -44.4824128 11.50906067 -44.51171875 14.94921875 C-44.52966995 15.72183548 -44.54762115 16.49445221 -44.56611633 17.29048157 C-44.62026104 19.756099 -44.65412731 22.22152243 -44.6875 24.6875 C-44.72066952 26.36005306 -44.75515885 28.03258051 -44.79101562 29.70507812 C-44.87598949 33.8032455 -44.9427802 37.90135494 -45 42 C-41.37 42 -37.74 42 -34 42 C-34 39.36 -34 36.72 -34 34 C-25.75 34 -17.5 34 -9 34 C-9 36.64 -9 39.28 -9 42 C-9.33 42 -9.66 42 -10 42 C-10 39.69 -10 37.38 -10 35 C-17.59 35 -25.18 35 -33 35 C-33 37.64 -33 40.28 -33 43 C-37.29 43 -41.58 43 -46 43 C-46 30.13 -46 17.26 -46 4 C-44.68 3.67 -43.36 3.34 -42 3 C-42 2.34 -42 1.68 -42 1 C-21.21 0.505 -21.21 0.505 0 0 Z " fill="#99B92C" transform="translate(134,102)"/>
<path d="M0 0 C0.99 0.33 1.98 0.66 3 1 C3 1.66 3 2.32 3 3 C3.66 3 4.32 3 5 3 C6.85929763 6.18736737 7.5976554 9.41582595 8.4296875 12.98828125 C8.99790425 15.24085606 8.99790425 15.24085606 10.5625 18.0625 C13.71214562 24.49873236 13.15405769 31.79506851 13.125 38.8125 C13.12886719 39.76576172 13.13273438 40.71902344 13.13671875 41.70117188 C13.13542969 42.61060547 13.13414062 43.52003906 13.1328125 44.45703125 C13.13168457 45.28178955 13.13055664 46.10654785 13.12939453 46.95629883 C13 49 13 49 12 51 C11.84729357 52.41394844 11.72632547 53.83144348 11.625 55.25 C11.21151096 59.41156711 10.01294517 62.30960053 8 66 C7.30092586 68.73572585 7.30092586 68.73572585 7 71 C6.34 71 5.68 71 5 71 C4.731875 71.928125 4.46375 72.85625 4.1875 73.8125 C3.08851629 76.76240366 2.37581439 78.05615186 0 80 C1.27029934 76.0251924 2.73721961 72.24591619 4.4375 68.4375 C12.37340621 49.30210485 12.28728963 28.51893795 4.4375 9.3125 C3.03986188 6.16454873 1.56032986 3.0703265 0 0 Z " fill="#3E5A39" transform="translate(178,73)"/>
<path d="M0 0 C5.55013356 5.55013356 5.35075835 18.35824364 5.4375 25.9375 C5.29696215 41.28227194 0.29004804 53.69389289 -7 67 C-8 65 -8 65 -7.109375 62.13671875 C-6.66078125 60.99847656 -6.2121875 59.86023438 -5.75 58.6875 C-5.31171875 57.55699219 -4.8734375 56.42648438 -4.421875 55.26171875 C-3 52 -3 52 -1.46118164 49.75585938 C0.37893538 46.28530951 0.55607236 43.55914158 0.80078125 39.64453125 C0.84567184 38.94285324 0.89056244 38.24117523 0.93681335 37.51823425 C1.02802436 36.03687995 1.11251588 34.55509836 1.19067383 33.07299805 C1.31126575 30.83540166 1.45968547 28.60091566 1.61132812 26.36523438 C2.04010321 19.38798283 2.25727241 12.82030461 0.46166992 5.98706055 C0 4 0 4 0 0 Z " fill="#A7D146" transform="translate(184,87)"/>
<path d="M0 0 C4.21779303 1.50635465 5.7747674 4.24012422 8 8 C8.92188461 10.76565382 9.11785222 12.38283702 9.09765625 15.23046875 C9.09443359 16.03291016 9.09121094 16.83535156 9.08789062 17.66210938 C9.07951172 18.49548828 9.07113281 19.32886719 9.0625 20.1875 C9.05798828 21.03248047 9.05347656 21.87746094 9.04882812 22.74804688 C9.03705403 24.83206155 9.0191189 26.91603977 9 29 C8.01 28.67 7.02 28.34 6 28 C5.96261719 26.94039062 5.92523438 25.88078125 5.88671875 24.7890625 C5.82106742 23.40100576 5.75461979 22.01298651 5.6875 20.625 C5.66494141 19.92632812 5.64238281 19.22765625 5.61914062 18.5078125 C5.53015704 16.22711059 5.53015704 16.22711059 5 13 C4.01 12.34 3.02 11.68 2 11 C2 22.22 2 33.44 2 45 C1.67 45 1.34 45 1 45 C0.97494385 44.01193359 0.9498877 43.02386719 0.92407227 42.00585938 C0.82925282 38.30815676 0.72922025 34.61060975 0.62768555 30.91308594 C0.58461643 29.31872216 0.54292424 27.72432053 0.50268555 26.12988281 C0.44429695 23.82605625 0.38080789 21.52241541 0.31640625 19.21875 C0.29969376 18.51633179 0.28298126 17.81391357 0.26576233 17.09020996 C0.12638411 12.33762717 -0.35111297 7.71078129 -1 3 C-0.67 3.99 -0.34 4.98 0 6 C0.99 5.34 1.98 4.68 3 4 C2.2575 3.2884375 2.2575 3.2884375 1.5 2.5625 C0 1 0 1 0 0 Z " fill="#BAE427" transform="translate(136,99)"/>
<path d="M0 0 C1.18351658 3.55054975 0.71340801 4.29216083 -0.4375 7.75 C-2.11945917 14.06120459 -2.30884864 20.10888058 -2.3125 26.625 C-2.32011353 28.07277832 -2.32011353 28.07277832 -2.32788086 29.54980469 C-2.2436244 38.45518161 -0.87468321 46.47791067 2.5 54.75 C4.13629902 58.80083782 5.65555931 62.84219269 7 67 C2.17135243 62.63122363 0.63116103 58.43784253 0 52 C-0.66 52 -1.32 52 -2 52 C-5.23476165 43.58961972 -5.1618824 34.90095245 -5.125 26 C-5.12886719 25.06671875 -5.13273437 24.1334375 -5.13671875 23.171875 C-5.11334031 6.432912 -5.11334031 6.432912 0 0 Z " fill="#44632A" transform="translate(38,85)"/>
<path d="M0 0 C2.76853365 2.421458 4.07330877 4.90748927 5.5625 8.25 C5.97628906 9.16265625 6.39007813 10.0753125 6.81640625 11.015625 C12.30181148 24.84681179 12.08963358 41.52286447 6.38671875 55.2578125 C5.03901613 57.92284699 3.58159394 60.46759445 2 63 C0.66667905 60.3333581 1.32897967 58.83319697 2 56 C2.33 56 2.66 56 3 56 C3.495 53.03 3.495 53.03 4 50 C4.66 50 5.32 50 6 50 C6.88361093 46.95869366 7.12861491 44.24071133 7.1328125 41.078125 C7.13410156 40.13453125 7.13539063 39.1909375 7.13671875 38.21875 C7.13285156 37.2390625 7.12898437 36.259375 7.125 35.25 C7.12886719 34.28578125 7.13273438 33.3215625 7.13671875 32.328125 C7.15678821 18.80453856 7.15678821 18.80453856 1.3125 6.875 C-0.36983774 4.47166038 -0.23910317 2.86923803 0 0 Z " fill="#3C4A18" transform="translate(159,80)"/>
<path d="M0 0 C1.24546405 2.49092811 0.7767578 3.41080733 0 6 C-0.66 6 -1.32 6 -2 6 C-2.12503906 6.57234375 -2.25007813 7.1446875 -2.37890625 7.734375 C-3.21998571 10.8024636 -4.59154011 13.52914061 -5.96484375 16.390625 C-9.14880147 24.41660143 -9.38358845 31.93960996 -9.375 40.5 C-9.37701416 41.73999756 -9.37902832 42.97999512 -9.38110352 44.25756836 C-9.28776164 52.7152262 -8.34774066 60.15134318 -5.77734375 68.19140625 C-5 71 -5 71 -6 74 C-6.82101314 71.8156809 -7.63142482 69.62737564 -8.4375 67.4375 C-8.88996094 66.21933594 -9.34242187 65.00117188 -9.80859375 63.74609375 C-15.41097213 46.13074664 -13.24062919 24.87425751 -4.85742188 8.63085938 C-3.2974411 5.71724449 -1.66752233 2.85340593 0 0 Z " fill="#B1DD48" transform="translate(47,70)"/>
<path d="M0 0 C1.43785841 0.95269146 2.85209522 1.94086317 4.26123047 2.93554688 C3.60123047 3.26554687 2.94123047 3.59554687 2.26123047 3.93554688 C-0.37877551 2.84929442 -2.88095396 1.55092134 -5.42626953 0.25976562 C-13.1254885 -2.81810611 -21.01187419 -3.45077974 -29.23876953 -3.43945312 C-30.157146 -3.44146729 -31.07552246 -3.44348145 -32.02172852 -3.44555664 C-37.89430279 -3.35726689 -42.67178264 -2.73278666 -47.89892578 0.15820312 C-50.22277652 1.1400424 -51.40580132 0.7616982 -53.73876953 -0.06445312 C-51.82361163 -0.88050311 -49.90658119 -1.69215945 -47.98876953 -2.50195312 C-46.92142578 -2.95441406 -45.85408203 -3.406875 -44.75439453 -3.87304688 C-31.23248812 -9.21525083 -12.41212236 -7.59854725 0 0 Z " fill="#3A4815" transform="translate(138.73876953125,61.064453125)"/>
<path d="M0 0 C3.5625 0.375 3.5625 0.375 5.5625 2.0625 C6.84987047 5.0395442 6.72236213 6.35935845 5.5625 9.375 C3.8125 11.25 3.8125 11.25 1.5625 12.375 C-1.63688696 12.29696617 -2.96879544 11.81245759 -5.3125 9.625 C-6.4375 7.375 -6.4375 7.375 -6.25 4.75 C-4.94511095 0.93570893 -4.02923269 0.43955266 0 0 Z " fill="#B8E328" transform="translate(102.4375,116.625)"/>
<path d="M0 0 C0.66 0.33 1.32 0.66 2 1 C2.08725659 5.2290362 2.1404789 9.45784012 2.1875 13.6875 C2.21263672 14.88568359 2.23777344 16.08386719 2.26367188 17.31835938 C2.27333984 18.47529297 2.28300781 19.63222656 2.29296875 20.82421875 C2.3086792 21.88729248 2.32438965 22.95036621 2.34057617 24.0456543 C1.95228365 27.41391799 0.88871464 29.22249609 -1 32 C-1.61327647 33.59295965 -2.19693294 35.19764852 -2.75 36.8125 C-5.03726726 42.69781461 -8.57059507 48.11624236 -14.21875 51.21875 C-14.8065625 51.4765625 -15.394375 51.734375 -16 52 C-15.64808594 51.58492187 -15.29617187 51.16984375 -14.93359375 50.7421875 C-5.40006781 38.84394885 -0.82572398 26.18992369 -0.375 11.0625 C-0.33632812 9.99708984 -0.29765625 8.93167969 -0.2578125 7.83398438 C-0.16413854 5.22282266 -0.07841665 2.61165696 0 0 Z " fill="#B8DF33" transform="translate(169,101)"/>
<path d="M0 0 C3.5625 0.375 3.5625 0.375 5.5625 2.0625 C6.84987047 5.0395442 6.72236213 6.35935845 5.5625 9.375 C3.8125 11.25 3.8125 11.25 1.5625 12.375 C-1.80786311 12.13425978 -3.02548021 11.78701979 -5.4375 9.375 C-5.6875 5.875 -5.6875 5.875 -5.4375 2.375 C-3.4375 0.375 -3.4375 0.375 0 0 Z " fill="#BAE627" transform="translate(122.4375,116.625)"/>
<path d="M0 0 C0.33 0 0.66 0 1 0 C1.1972935 3.41617497 1.38112295 6.83294593 1.5625 10.25 C1.61857422 11.21808594 1.67464844 12.18617187 1.73242188 13.18359375 C1.78076172 14.11816406 1.82910156 15.05273438 1.87890625 16.015625 C1.9260376 16.87446289 1.97316895 17.73330078 2.02172852 18.61816406 C2.00062024 20.93201054 1.58751927 22.77701892 1 25 C1.31821146 26.33702294 1.65235625 27.67032609 2 29 C1.87890625 31.359375 1.87890625 31.359375 1.5625 33.75 C1.46066406 34.54921875 1.35882813 35.3484375 1.25390625 36.171875 C1.17011719 36.77515625 1.08632812 37.3784375 1 38 C0.67 38 0.34 38 0 38 C0 34.7 0 31.4 0 28 C-2.64 28 -5.28 28 -8 28 C-8 25.03 -8 22.06 -8 19 C-5.36 19 -2.72 19 0 19 C0 12.73 0 6.46 0 0 Z " fill="#A7CF23" transform="translate(80,109)"/>
<path d="M0 0 C0.7734375 -0.00773437 1.546875 -0.01546875 2.34375 -0.0234375 C5.00698365 0.46868176 5.86561587 1.24929794 7.5 3.375 C8.375 6.25 8.375 6.25 8.5 9.375 C7.50664799 11.04563747 6.50568242 12.71175599 5.5 14.375 C4.94600352 17.38386164 4.72827521 20.31611212 4.5 23.375 C9.12 23.375 13.74 23.375 18.5 23.375 C18.17 24.365 17.84 25.355 17.5 26.375 C15.56257659 26.40203381 13.62504521 26.42141125 11.6875 26.4375 C10.60855469 26.44910156 9.52960938 26.46070312 8.41796875 26.47265625 C5.5 26.375 5.5 26.375 2.5 25.375 C2.44550162 23.64619018 2.40698312 21.91687288 2.375 20.1875 C2.35179688 19.22457031 2.32859375 18.26164062 2.3046875 17.26953125 C2.50970665 14.23114744 3.35967694 12.17063072 4.5 9.375 C4.19485998 5.65028604 4.19485998 5.65028604 3.5 2.375 C0.08343976 2.20822718 0.08343976 2.20822718 -3.5 2.375 C-5.68331689 4.13636355 -5.68331689 4.13636355 -5.6953125 6.3203125 C-5.66050781 7.39925781 -5.66050781 7.39925781 -5.625 8.5 C-5.58375 9.77875 -5.5425 11.0575 -5.5 12.375 C-4.84 12.705 -4.18 13.035 -3.5 13.375 C-4.49 13.375 -5.48 13.375 -6.5 13.375 C-8.07922406 11.79577594 -7.707659 10.18056126 -7.75 8 C-7.77578125 7.20851563 -7.8015625 6.41703125 -7.828125 5.6015625 C-7.5 3.375 -7.5 3.375 -6.265625 1.609375 C-4.03928298 0.0529058 -2.69941952 -0.0269942 0 0 Z " fill="#B0D532" transform="translate(112.5,72.625)"/>
<path d="M0 0 C1.98 0.495 1.98 0.495 4 1 C4.30008978 6.80173582 3.8169737 9.8167684 1 15 C0.62545207 16.99269289 0.28635495 18.99273521 0 21 C0.92941406 20.96519531 1.85882813 20.93039063 2.81640625 20.89453125 C9.7799266 20.7420454 14.82115121 20.7762528 21 24 C22.32 24 23.64 24 25 24 C26.24546405 26.49092811 25.7767578 27.41080733 25 30 C25.66 30 26.32 30 27 30 C27.84191782 32.9248633 28.11819313 35.50741656 28.09765625 38.546875 C28.09443359 39.39121094 28.09121094 40.23554687 28.08789062 41.10546875 C28.07951172 41.97816406 28.07113281 42.85085937 28.0625 43.75 C28.05798828 44.63816406 28.05347656 45.52632812 28.04882812 46.44140625 C28.037074 48.62767329 28.02064249 50.81380179 28 53 C29.98 53 31.96 53 34 53 C34 53.33 34 53.66 34 54 C31.69 54 29.38 54 27 54 C26.97421875 52.7934375 26.9484375 51.586875 26.921875 50.34375 C26.86555114 48.72913262 26.8082048 47.11455067 26.75 45.5 C26.73582031 44.70851562 26.72164062 43.91703125 26.70703125 43.1015625 C26.47242443 37.37715612 25.30126464 32.75772557 22 28 C16.67079881 23.75839089 12.49958777 22.866946 5.8125 22.4375 C4.54019531 22.35371094 3.26789063 22.26992187 1.95703125 22.18359375 C0.98121094 22.12300781 0.00539063 22.06242187 -1 22 C-1.34119407 16.19970076 -1.11245365 13.00699065 2 8 C1.76167267 4.96132655 1.3610499 2.72209981 0 0 Z " fill="#36430F" transform="translate(118,74)"/>
<path d="M0 0 C1.20628008 2.33214148 2.1654738 4.49642139 3 7 C3.99 7 4.98 7 6 7 C6 7.66 6 8.32 6 9 C5.505 9.433125 5.01 9.86625 4.5 10.3125 C2.72788682 11.96020352 2.72788682 11.96020352 2.8125 14.6875 C2.874375 15.450625 2.93625 16.21375 3 17 C3.66 17.33 4.32 17.66 5 18 C3.875 20.4375 3.875 20.4375 2 23 C-1.1875 23.8125 -1.1875 23.8125 -4 24 C-4 23.67 -4 23.34 -4 23 C-7.3 22.67 -10.6 22.34 -14 22 C-14 21.67 -14 21.34 -14 21 C-9.38 21 -4.76 21 0 21 C0.04125 19.411875 0.0825 17.82375 0.125 16.1875 C0.14820312 15.29417969 0.17140625 14.40085937 0.1953125 13.48046875 C0.18285827 10.74597286 0.18285827 10.74597286 -2 8 C-2.25 4.9375 -2.25 4.9375 -2 2 C-1.34 1.34 -0.68 0.68 0 0 Z " fill="#BDF10D" transform="translate(108,75)"/>
<path d="M0 0 C3 2 3 2 3.6875 4.625 C3.8421875 5.800625 3.8421875 5.800625 4 7 C4.99 6.67 5.98 6.34 7 6 C7.66 6.66 8.32 7.32 9 8 C11.06874034 8.6425235 11.06874034 8.6425235 13 9 C13 10.32 13 11.64 13 13 C12.34 13 11.68 13 11 13 C11 13.66 11 14.32 11 15 C11.66 15 12.32 15 13 15 C13.350625 15.845625 13.70125 16.69125 14.0625 17.5625 C16.44496074 21.78944647 19.46473355 24.72624641 23 28 C18.96968211 28 18.21095085 26.67493878 15.375 23.875 C9.34271818 17.67441663 1.4075305 8.79165203 0 0 Z " fill="#B8E92D" transform="translate(42,144)"/>
<path d="M0 0 C0 0.33 0 0.66 0 1 C-3.3 0.67 -6.6 0.34 -10 0 C-10.495 -1.485 -10.495 -1.485 -11 -3 C-17.63313184 -4.00092768 -24.1104623 -4.15021143 -30.8125 -4.125 C-31.82892578 -4.12886719 -32.84535156 -4.13273437 -33.89257812 -4.13671875 C-40.64650081 -4.12810954 -47.28596925 -3.72767794 -54 -3 C-39.40247205 -12.7316853 -14.71136398 -6.66787796 0 0 Z " fill="#A6D140" transform="translate(144,42)"/>
<path d="M0 0 C0.33 1.32 0.66 2.64 1 4 C0.01 4.33 -0.98 4.66 -2 5 C-2.12375 5.763125 -2.2475 6.52625 -2.375 7.3125 C-3 10 -3 10 -5 13 C-5.66 13 -6.32 13 -7 13 C-7.33 13.99 -7.66 14.98 -8 16 C-9.59375 17.09765625 -9.59375 17.09765625 -11.5 18.0625 C-14.33019068 19.42445528 -14.33019068 19.42445528 -16 22 C-16.66 22 -17.32 22 -18 22 C-18.33 22.99 -18.66 23.98 -19 25 C-22.41482003 27.56111503 -24.74808535 28.36444983 -29 28 C-26.37287875 25.86424772 -23.72385704 23.79933135 -20.984375 21.80859375 C-12.40113587 15.55989027 -5.93553179 8.90329769 0 0 Z " fill="#425E34" transform="translate(177,153)"/>
<path d="M0 0 C7.59 0 15.18 0 23 0 C23.495 3.465 23.495 3.465 24 7 C25.17369141 7.07347656 25.17369141 7.07347656 26.37109375 7.1484375 C27.38300781 7.22320312 28.39492187 7.29796875 29.4375 7.375 C30.44683594 7.44460937 31.45617187 7.51421875 32.49609375 7.5859375 C33.73552734 7.79089844 33.73552734 7.79089844 35 8 C35.495 8.99 35.495 8.99 36 10 C33.87561661 10.08078641 31.7503677 10.13909141 29.625 10.1875 C27.84996094 10.23970703 27.84996094 10.23970703 26.0390625 10.29296875 C24.53472656 10.14794922 24.53472656 10.14794922 23 10 C21 7 21 7 22 1 C15.07 1 8.14 1 1 1 C1 3.64 1 6.28 1 9 C0 10 0 10 -2.50390625 10.09765625 C-4.01791016 10.08025391 -4.01791016 10.08025391 -5.5625 10.0625 C-6.57441406 10.05347656 -7.58632812 10.04445312 -8.62890625 10.03515625 C-9.41136719 10.02355469 -10.19382812 10.01195312 -11 10 C-11 9.34 -11 8.68 -11 8 C-7.37 8 -3.74 8 0 8 C0 5.36 0 2.72 0 0 Z " fill="#C3EE2F" transform="translate(101,137)"/>
<path d="M0 0 C0.556875 0.19335938 1.11375 0.38671875 1.6875 0.5859375 C2.450625 0.84632813 3.21375 1.10671875 4 1.375 C5.11375 1.75785156 5.11375 1.75785156 6.25 2.1484375 C13.06049987 4.2573707 19.07165311 5.38591946 26.1875 5.375 C27.42391235 5.37802124 27.42391235 5.37802124 28.68530273 5.38110352 C35.18902277 5.27419478 40.52557973 4.08650041 46.62890625 1.77734375 C49 1 49 1 51 2 C42.84581878 8.31949045 33.44194495 7.13351389 23.5 7.0625 C21.69402344 7.05573242 21.69402344 7.05573242 19.8515625 7.04882812 C16.90098927 7.0371195 13.95052141 7.02071995 11 7 C11 6.34 11 5.68 11 5 C8.03 5 5.06 5 2 5 C1.34 3.35 0.68 1.7 0 0 Z " fill="#C0E63F" transform="translate(85,164)"/>
<path d="M0 0 C0.99 0 1.98 0 3 0 C3 11.55 3 23.1 3 35 C-0.3111013 36.10370043 -2.24748949 35.92673641 -5.6875 35.5625 C-6.68136719 35.46066406 -7.67523438 35.35882813 -8.69921875 35.25390625 C-9.45847656 35.17011719 -10.21773438 35.08632812 -11 35 C-11 34.67 -11 34.34 -11 34 C-7.37 34 -3.74 34 0 34 C0 22.78 0 11.56 0 0 Z " fill="#9EC41B" transform="translate(136,110)"/>
<path d="M0 0 C1.1996608 1.7994912 2.37888194 3.6132419 3.515625 5.453125 C10.13733297 16.13137479 16.34663806 22.36319685 27 29 C23.98968256 29.93423645 23.13349732 30.04449911 20 29 C19.67 28.34 19.34 27.68 19 27 C16.98330173 25.86649466 16.98330173 25.86649466 15 25 C15 24.34 15 23.68 15 23 C13.35 23 11.7 23 10 23 C9.89558594 22.27425781 9.79117188 21.54851562 9.68359375 20.80078125 C8.93657973 17.74015809 7.82451352 15.78528522 6.0625 13.1875 C5.27552734 12.00220703 5.27552734 12.00220703 4.47265625 10.79296875 C3.98667969 10.20128906 3.50070313 9.60960937 3 9 C2.34 9 1.68 9 1 9 C0.67 6.03 0.34 3.06 0 0 Z " fill="#BBE52E" transform="translate(58,134)"/>
<path d="M0 0 C0.66 0 1.32 0 2 0 C2.19335938 0.81984375 2.38671875 1.6396875 2.5859375 2.484375 C2.84632812 3.56203125 3.10671875 4.6396875 3.375 5.75 C3.63023438 6.81734375 3.88546875 7.8846875 4.1484375 8.984375 C5.3824357 13.3543136 6.79660487 15.85280479 10 19 C11.52669031 21.24728814 12.96252646 23.54004233 14.40234375 25.84375 C16.98083622 29.32376918 20.11697679 31.1971678 24 33 C23.67 33.66 23.34 34.32 23 35 C12.60644591 30.60272712 5.66328795 19.530607 1.4375 9.5 C0.16708636 6.20257082 -0.14298771 3.53117475 0 0 Z " fill="#3A4812" transform="translate(56,124)"/>
<path d="M0 0 C10.91405036 6.60587258 18.22981589 15.41954319 25 26 C24.67 26.66 24.34 27.32 24 28 C23.67 27.01 23.34 26.02 23 25 C22.01 24.67 21.02 24.34 20 24 C20 23.01 20 22.02 20 21 C19.01 20.67 18.02 20.34 17 20 C16 18 15 16 14 14 C11.62494782 11.29151077 11.62494782 11.29151077 9 9 C8.360625 8.401875 7.72125 7.80375 7.0625 7.1875 C4.29634792 5.59486699 2.13402799 5.78631627 -1 6 C-1 3 -1 3 0 0 Z " fill="#B3E044" transform="translate(154,48)"/>
<path d="M0 0 C2.64 0 5.28 0 8 0 C8 2.97 8 5.94 8 9 C5.36 9 2.72 9 0 9 C0.03480469 9.59167969 0.06960937 10.18335938 0.10546875 10.79296875 C0.27563175 15.7601076 0.16855209 18.90728689 -3 23 C-3.66 21.68 -4.32 20.36 -5 19 C-4.01 18.67 -3.02 18.34 -2 18 C-2.01160156 17.28972656 -2.02320313 16.57945312 -2.03515625 15.84765625 C-2.04869141 14.46900391 -2.04869141 14.46900391 -2.0625 13.0625 C-2.07410156 12.14597656 -2.08570313 11.22945312 -2.09765625 10.28515625 C-2 8 -2 8 -1 7 C1.33297433 6.95907063 3.66705225 6.95758277 6 7 C6 5.35 6 3.7 6 2 C3.03 1.505 3.03 1.505 0 1 C0 0.67 0 0.34 0 0 Z " fill="#A8CC33" transform="translate(145,128)"/>
<path d="M0 0 C0.598125 0.639375 1.19625 1.27875 1.8125 1.9375 C5.1594221 5.09316941 7.88575502 5.12380943 12.29760742 5.11352539 C13.37850143 5.11344986 14.45939545 5.11337433 15.57304382 5.11329651 C17.32159416 5.10555458 17.32159416 5.10555458 19.10546875 5.09765625 C20.29981033 5.0962413 21.49415192 5.09482635 22.72468567 5.09336853 C26.54564908 5.0877635 30.36655425 5.07521011 34.1875 5.0625 C36.77538978 5.05748565 39.36328048 5.05292263 41.95117188 5.04882812 C48.30080118 5.03779243 54.65039643 5.02104936 61 5 C61 5.66 61 6.32 61 7 C53.2587148 7.02535676 45.51744031 7.04286976 37.77612305 7.05493164 C35.14265543 7.05996013 32.50919061 7.06678375 29.87573242 7.07543945 C26.09032502 7.08756988 22.30495454 7.09324318 18.51953125 7.09765625 C17.34227982 7.10281754 16.16502838 7.10797882 14.95210266 7.11329651 C13.30095711 7.11340981 13.30095711 7.11340981 11.61645508 7.11352539 C10.65048904 7.115746 9.68452301 7.11796661 8.68928528 7.12025452 C6.0281485 7.00125869 3.59273509 6.59468968 1 6 C0.67 4.02 0.34 2.04 0 0 Z " fill="#324009" transform="translate(80,147)"/>
<path d="M0 0 C4.64573275 4.64573275 4.2569198 12.19648882 4.2734375 18.390625 C4.26570312 19.37546875 4.25796875 20.3603125 4.25 21.375 C4.25773438 22.35210937 4.26546875 23.32921875 4.2734375 24.3359375 C4.25630166 30.77901478 3.50932449 36.73750669 2 43 C1.67 43 1.34 43 1 43 C1.0407666 42.17387207 1.0815332 41.34774414 1.12353516 40.49658203 C1.27119183 37.38446727 1.40771767 34.27210329 1.53710938 31.15917969 C1.62313173 29.16824011 1.72158482 27.17784999 1.8203125 25.1875 C2.08852635 18.54920715 2.08963549 12.50857983 0.45068359 6.04638672 C0 4 0 4 0 0 Z " fill="#BCF021" transform="translate(184,87)"/>
<path d="M0 0 C0.66 0.33 1.32 0.66 2 1 C1.525625 1.433125 1.05125 1.86625 0.5625 2.3125 C-1.23686957 4.02309613 -1.23686957 4.02309613 -2 7 C-3.63604196 8.37073786 -5.30678061 9.70055256 -7 11 C-7.70125 11.721875 -8.4025 12.44375 -9.125 13.1875 C-11 15 -11 15 -14 16 C-15.70586575 17.62652316 -17.3777546 19.29006566 -19 21 C-15.0150717 12.32128596 -7.06323712 6.13947371 0 0 Z " fill="#B9E932" transform="translate(67,49)"/>
<path d="M0 0 C0.33 0 0.66 0 1 0 C1.66425354 14.67262268 1.04274669 26.19292829 -7 39 C-8.33332095 36.3333581 -7.67102033 34.83319697 -7 32 C-6.67 32 -6.34 32 -6 32 C-5.67 30.02 -5.34 28.04 -5 26 C-4.34 26 -3.68 26 -3 26 C-0.65987018 17.41952398 -0.38566164 8.83977082 0 0 Z " fill="#37470E" transform="translate(168,104)"/>
<path d="M0 0 C1.65 0 3.3 0 5 0 C-0.74254966 6.53462548 -8.92950068 11.77180027 -17 15 C-17.99 14.67 -18.98 14.34 -20 14 C-18.71086513 13.32845067 -17.41859796 12.66291141 -16.125 12 C-15.40570313 11.62875 -14.68640625 11.2575 -13.9453125 10.875 C-12 10 -12 10 -10 10 C-9.34 8.35 -8.68 6.7 -8 5 C-6.35 5 -4.7 5 -3 5 C-3 4.34 -3 3.68 -3 3 C-2.01 3 -1.02 3 0 3 C0 2.01 0 1.02 0 0 Z " fill="#B5E436" transform="translate(159,169)"/>
<path d="M0 0 C29.49329772 -0.78119982 29.49329772 -0.78119982 40 5 C40 5.99 40 6.98 40 8 C39.46632812 7.81824219 38.93265625 7.63648438 38.3828125 7.44921875 C37.63773438 7.19785156 36.89265625 6.94648437 36.125 6.6875 C35.40570313 6.44386719 34.68640625 6.20023438 33.9453125 5.94921875 C32.48738281 5.47935547 32.48738281 5.47935547 31 5 C29.93048096 4.62838745 29.93048096 4.62838745 28.83935547 4.24926758 C22.46317563 2.14893095 16.56486543 1.47692787 9.875 1.3125 C8.91851562 1.27833984 7.96203125 1.24417969 6.9765625 1.20898438 C4.65115927 1.12759526 2.32608124 1.05810388 0 1 C0 0.67 0 0.34 0 0 Z " fill="#B4D644" transform="translate(101,54)"/>
<path d="M0 0 C0.33 0 0.66 0 1 0 C1.01401855 0.87398438 1.01401855 0.87398438 1.02832031 1.765625 C1.25927127 13.28600225 1.95110117 23.90868702 5.2578125 34.98046875 C6 38 6 38 5 41 C-1.73122135 27.99431875 -0.50185817 14.2713023 0 0 Z " fill="#B7E634" transform="translate(36,103)"/>
<path d="M0 0 C0.66 0.33 1.32 0.66 2 1 C2.1953125 7.0546875 2.1953125 7.0546875 2 9 C0 11 0 11 -3.125 11.125 C-4.07375 11.08375 -5.0225 11.0425 -6 11 C-5.979375 12.093125 -5.95875 13.18625 -5.9375 14.3125 C-6 18 -6 18 -7 21 C-7.66 21 -8.32 21 -9 21 C-8.67 17.04 -8.34 13.08 -8 9 C-5.36 9 -2.72 9 0 9 C0 6.03 0 3.06 0 0 Z " fill="#344018" transform="translate(153,128)"/>
<path d="M0 0 C8.4 2.14117647 8.4 2.14117647 12 5 C12.8125 7.6875 12.8125 7.6875 13 10 C13.66 10 14.32 10 15 10 C17.1875 11.75 17.1875 11.75 19 14 C18.61328125 16.140625 18.61328125 16.140625 18 18 C17.5875 17.50371094 17.175 17.00742188 16.75 16.49609375 C13.03630717 12.12753098 9.18314315 8.23620653 4.796875 4.54296875 C3.11316264 3.09717227 1.54694933 1.58992015 0 0 Z " fill="#BAE32D" transform="translate(141,62)"/>
<path d="M0 0 C3.7630516 3.21427324 7.51697127 6.4383824 11.25 9.6875 C11.89453125 10.24824219 12.5390625 10.80898437 13.203125 11.38671875 C14.86051932 12.87477061 16.44226707 14.40861235 18 16 C11.25 14.125 11.25 14.125 9 13 C8.67 12.01 8.34 11.02 8 10 C5.99983534 8.79117904 5.99983534 8.79117904 4 8 C4 7.34 4 6.68 4 6 C3.01 6 2.02 6 1 6 C0.67 4.02 0.34 2.04 0 0 Z " fill="#405C35" transform="translate(52,162)"/>
<path d="M0 0 C0.33 0 0.66 0 1 0 C1.31339245 6.52320575 1.42887737 11.23948602 -2 17 C-2.69907414 19.73572585 -2.69907414 19.73572585 -3 22 C-3.66 22 -4.32 22 -5 22 C-5.268125 22.928125 -5.53625 23.85625 -5.8125 24.8125 C-6.91148371 27.76240366 -7.62418561 29.05615186 -10 31 C-8.72970066 27.0251924 -7.26278039 23.24591619 -5.5625 19.4375 C-2.87976963 13.11165352 -1.33409718 6.72471747 0 0 Z " fill="#446228" transform="translate(188,122)"/>
<path d="M0 0 C0.33 0 0.66 0 1 0 C1.64972246 6.98451642 -0.28377673 13.58669505 -3 20 C-5.140625 22.39453125 -5.140625 22.39453125 -7 24 C-6.50471348 19.93865052 -5.46523221 16.713993 -3.76171875 13.0078125 C-2.53634165 9.77784415 -2.01438418 6.43440637 -1.4296875 3.0390625 C-1 1 -1 1 0 0 Z " fill="#33262C" transform="translate(218,134)"/>
<path d="M0 0 C0.33 0 0.66 0 1 0 C0.96519531 1.1859375 0.93039063 2.371875 0.89453125 3.59375 C0.67804457 14.4575478 1.54762176 24.4168201 4 35 C0.83672404 32.41186512 -0.07221102 29.94859954 -1 26 C-1.25350967 22.28721569 -1.23393563 18.59473835 -1.1875 14.875 C-1.18685547 13.88628906 -1.18621094 12.89757812 -1.18554688 11.87890625 C-1.13708942 3.92111534 -1.13708942 3.92111534 0 0 Z " fill="#B9DE3B" transform="translate(54,99)"/>
<path d="M0 0 C-4.21958321 2.19580229 -8.61963325 3.9060215 -13.02734375 5.68359375 C-16.0259847 6.93725974 -16.0259847 6.93725974 -18.75390625 8.66015625 C-21 10 -21 10 -23 10 C-23 9.01 -23 8.02 -23 7 C-22.34 7 -21.68 7 -21 7 C-21 6.34 -21 5.68 -21 5 C-20.030625 4.87625 -19.06125 4.7525 -18.0625 4.625 C-17.051875 4.41875 -16.04125 4.2125 -15 4 C-14.67 3.34 -14.34 2.68 -14 2 C-9.20867943 0.27512459 -5.07283639 -0.20705455 0 0 Z " fill="#B9E131" transform="translate(101,55)"/>
<path d="M0 0 C-1.3125 1.5 -1.3125 1.5 -3 3 C-3.99 3 -4.98 3 -6 3 C-6 3.66 -6 4.32 -6 5 C-7.95513161 5.696553 -9.91422476 6.38199565 -11.875 7.0625 C-12.96554688 7.44535156 -14.05609375 7.82820313 -15.1796875 8.22265625 C-18 9 -18 9 -20 8 C-4.11573237 -2.05786618 -4.11573237 -2.05786618 0 0 Z " fill="#B4E433" transform="translate(89,40)"/>
<path d="M0 0 C4.09125955 2.21886329 7.07157732 4.86015272 10.3125 8.1875 C11.19550781 9.08855469 12.07851562 9.98960938 12.98828125 10.91796875 C13.98408203 11.94857422 13.98408203 11.94857422 15 13 C13.33333333 13 11.66666667 13 10 13 C9.67 11.68 9.34 10.36 9 9 C8.01 9 7.02 9 6 9 C6 8.34 6 7.68 6 7 C4.35 7 2.7 7 1 7 C1.33 5.35 1.66 3.7 2 2 C1.34 2 0.68 2 0 2 C0 1.34 0 0.68 0 0 Z " fill="#37431A" transform="translate(144,65)"/>
<path d="M0 0 C0 4.61344915 -2.68342661 6.78635294 -5.6875 10.1015625 C-8.20514782 12.16841527 -9.29604562 12.59682808 -12.5 12.5625 C-13.655 12.376875 -14.81 12.19125 -16 12 C-12.48701324 9.31124476 -8.8325518 6.9033725 -5.12109375 4.5 C-3.18787174 3.13285957 -1.60971783 1.72800381 0 0 Z " fill="#B7E02F" transform="translate(152,153)"/>
<path d="M0 0 C3.11733407 1.16900028 6.05172018 2.52693759 9 4.0625 C11.39169465 5.28762419 13.15144605 6.03028921 15.8125 6.5625 C18.43894651 7.0877893 19.3947955 7.88788882 21 10 C21 10.66 21 11.32 21 12 C16.46075483 10.61759352 12.43074473 8.80218467 8.25 6.5625 C7.12078125 5.96566406 5.9915625 5.36882812 4.828125 4.75390625 C2 3 2 3 0 0 Z " fill="#B5E43B" transform="translate(65,173)"/>
<path d="M0 0 C2.475 0.495 2.475 0.495 5 1 C5 1.66 5 2.32 5 3 C5.57975586 3.14042725 6.15951172 3.28085449 6.75683594 3.42553711 C8.8261847 3.95548679 10.85328956 4.55063139 12.890625 5.19140625 C13.59960938 5.41376953 14.30859375 5.63613281 15.0390625 5.86523438 C15.76867187 6.09533203 16.49828125 6.32542969 17.25 6.5625 C18.36761719 6.91344727 18.36761719 6.91344727 19.5078125 7.27148438 C21.33886649 7.84662313 23.1694773 8.4231725 25 9 C25 9.33 25 9.66 25 10 C18.38805934 10.1066442 13.25505384 8.5041529 7.4375 5.5625 C6.81794434 5.24982178 6.19838867 4.93714355 5.56005859 4.61499023 C1.14285265 2.28570531 1.14285265 2.28570531 0 0 Z " fill="#3B4A0F" transform="translate(79,159)"/>
<path d="M0 0 C1.32 0 2.64 0 4 0 C4.33 1.32 4.66 2.64 5 4 C5.99 4 6.98 4 8 4 C8.6509259 5.24735567 9.29551669 6.49801832 9.9375 7.75 C10.29714844 8.44609375 10.65679687 9.1421875 11.02734375 9.859375 C11.95558182 11.90224433 12.53166578 13.81115376 13 16 C10.20772488 13.29998066 7.74056812 10.51690695 5.375 7.4375 C4.78460938 6.67308594 4.19421875 5.90867187 3.5859375 5.12109375 C2.33804503 3.45211441 1.15595151 1.73392727 0 0 Z " fill="#415F2D" transform="translate(165,56)"/>
<path d="M0 0 C1.21019549 3.63058647 0.67703157 5.26118361 -0.25 8.9375 C-0.62898438 10.49791016 -0.62898438 10.49791016 -1.015625 12.08984375 C-1.97737751 14.93312001 -3.06005011 16.73854156 -5 19 C-4.58997722 5.18223235 -4.58997722 5.18223235 0 0 Z " fill="#3F5A37" transform="translate(38,85)"/>
<path d="M0 0 C5.75 0.75 5.75 0.75 8 3 C10.06874034 3.6425235 10.06874034 3.6425235 12 4 C12 4.66 12 5.32 12 6 C13.65 6.33 15.3 6.66 17 7 C13.99353048 8.30230734 12.90644333 7.96485975 9.765625 6.78515625 C8.60546875 6.21667969 7.4453125 5.64820313 6.25 5.0625 C4.49429688 4.21365234 4.49429688 4.21365234 2.703125 3.34765625 C1.81109375 2.90292969 0.9190625 2.45820313 0 2 C0 1.34 0 0.68 0 0 Z " fill="#3F2E34" transform="translate(59,208)"/>
<path d="M0 0 C2 0 2 0 4.125 1.875 C6 4 6 4 6 6 C6.66 6 7.32 6 8 6 C8 6.66 8 7.32 8 8 C8.598125 8.268125 9.19625 8.53625 9.8125 8.8125 C11.97224808 9.98493467 13.35790256 11.19369282 15 13 C14.01 13.33 13.02 13.66 12 14 C10.29556344 12.29556344 8.59160196 10.590704 6.890625 8.8828125 C5.74495705 7.74187872 4.59092485 6.60915097 3.421875 5.4921875 C2.246063 4.36367829 1.11802565 3.18578478 0 2 C0 1.34 0 0.68 0 0 Z " fill="#372830" transform="translate(28,183)"/>
<path d="M0 0 C0.90492187 0.30744141 0.90492187 0.30744141 1.828125 0.62109375 C3.02695313 1.02521484 3.02695313 1.02521484 4.25 1.4375 C5.03890625 1.70433594 5.8278125 1.97117188 6.640625 2.24609375 C8.74821988 2.91954708 10.84753973 3.49150595 13 4 C13 4.66 13 5.32 13 6 C13.99 6.33 14.98 6.66 16 7 C14.35 7 12.7 7 11 7 C11 6.34 11 5.68 11 5 C8.03 5 5.06 5 2 5 C1.34 3.35 0.68 1.7 0 0 Z " fill="#BDE72A" transform="translate(85,164)"/>
<path d="M0 0 C0.66 0.33 1.32 0.66 2 1 C0.73452987 2.62918007 -0.53757728 4.25320642 -1.8125 5.875 C-2.52019531 6.77992188 -3.22789062 7.68484375 -3.95703125 8.6171875 C-6 11 -6 11 -9 13 C-9 11.35 -9 9.7 -9 8 C-8.195625 7.731875 -7.39125 7.46375 -6.5625 7.1875 C-5.716875 6.795625 -4.87125 6.40375 -4 6 C-3.67 5.01 -3.34 4.02 -3 3 C-2.34 3 -1.68 3 -1 3 C-0.67 2.01 -0.34 1.02 0 0 Z " fill="#B3E234" transform="translate(173,156)"/>
<path d="M0 0 C0.33 0 0.66 0 1 0 C0.68978386 6.97986313 -2.4951958 12.07291522 -6 18 C-7 16 -7 16 -6.07421875 13.06640625 C-5.61660156 11.91011719 -5.15898437 10.75382813 -4.6875 9.5625 C-4.23761719 8.40878906 -3.78773438 7.25507813 -3.32421875 6.06640625 C-2 3 -2 3 0 0 Z " fill="#B7E638" transform="translate(183,136)"/>
<path d="M0 0 C2.31 0.33 4.62 0.66 7 1 C7 1.66 7 2.32 7 3 C7.99 3 8.98 3 10 3 C10.28875 3.804375 10.5775 4.60875 10.875 5.4375 C11.73262568 8.1326468 11.73262568 8.1326468 14 9 C9.98165669 9 8.50894113 7.43998366 5.3125 5.0625 C3.82169922 3.96615234 3.82169922 3.96615234 2.30078125 2.84765625 C1.54152344 2.23792969 0.78226563 1.62820312 0 1 C0 0.67 0 0.34 0 0 Z " fill="#426034" transform="translate(152,46)"/>
<path d="M0 0 C7.48620682 1.08165726 14.09176345 2.91302228 21 6 C21 6.33 21 6.66 21 7 C17.7 6.67 14.4 6.34 11 6 C10.67 5.01 10.34 4.02 10 3 C8.081875 2.814375 8.081875 2.814375 6.125 2.625 C2.25 2.25 2.25 2.25 0 0 Z " fill="#B3E23A" transform="translate(123,36)"/>
<path d="M0 0 C0.99 0.33 1.98 0.66 3 1 C3 1.66 3 2.32 3 3 C3.66 3 4.32 3 5 3 C7.98291012 8.11356021 9.36844835 14.10482642 9 20 C6.78930051 15.74235653 5.03722802 11.31031223 3.21875 6.875 C2.2241441 4.52875018 1.17358676 2.26024118 0 0 Z " fill="#42612A" transform="translate(178,73)"/>
<path d="M0 0 C0.33 0 0.66 0 1 0 C1 2.97 1 5.94 1 9 C1.66 9.33 2.32 9.66 3 10 C0 12 0 12 -1.859375 11.66015625 C-2.56578125 11.44230469 -3.2721875 11.22445312 -4 11 C-5.74690919 10.7856066 -7.4974023 10.59892347 -9.25 10.4375 C-10.14203125 10.35371094 -11.0340625 10.26992187 -11.953125 10.18359375 C-12.96632813 10.09271484 -12.96632813 10.09271484 -14 10 C-14 9.67 -14 9.34 -14 9 C-9.38 9 -4.76 9 0 9 C0 6.03 0 3.06 0 0 Z " fill="#98BD1A" transform="translate(108,87)"/>
<path d="M0 0 C2.50920533 3.763808 4.92057143 7.58666345 7.34375 11.40625 C8.54259807 13.28369131 9.76437215 15.14655823 11 17 C10.01 17 9.02 17 8 17 C6.68359375 15.25 6.68359375 15.25 5.4375 13 C4.25269435 10.79802999 4.25269435 10.79802999 3 9 C2.34 9 1.68 9 1 9 C0.67 6.03 0.34 3.06 0 0 Z " fill="#B4DA38" transform="translate(58,134)"/>
<path d="M0 0 C-3.12245047 2.08163365 -6.07034881 3.32575613 -9.5625 4.6875 C-10.71878906 5.14511719 -11.87507813 5.60273437 -13.06640625 6.07421875 C-16 7 -16 7 -18 6 C-16.6767128 3.3534256 -15.74278429 3.12524484 -13 2 C-8.63954109 0.66814435 -4.59459114 -0.28716195 0 0 Z " fill="#426129" transform="translate(93,37)"/>
<path d="M0 0 C0 0.66 0 1.32 0 2 C-7.92 3.485 -7.92 3.485 -16 5 C-15.67 4.01 -15.34 3.02 -15 2 C-13.2508503 1.66223316 -11.50063855 1.32996329 -9.75 1 C-8.77546875 0.814375 -7.8009375 0.62875 -6.796875 0.4375 C-4 0 -4 0 0 0 Z " fill="#415951" transform="translate(102,33)"/>
<path d="M0 0 C0.66 0 1.32 0 2 0 C2.70180531 1.4096347 3.38593958 2.82807641 4.0625 4.25 C4.44535156 5.03890625 4.82820312 5.8278125 5.22265625 6.640625 C6.08564091 9.25993522 5.93045933 10.44855176 5 13 C4.15615325 11.58957044 3.32530504 10.17135868 2.5 8.75 C2.0359375 7.96109375 1.571875 7.1721875 1.09375 6.359375 C0 4 0 4 0 0 Z " fill="#3A2B31" transform="translate(209,64)"/>
<path d="M0 0 C1.65 0.33 3.3 0.66 5 1 C2.5 3 2.5 3 0 5 C-0.886875 5.7425 -1.77375 6.485 -2.6875 7.25 C-5 9 -5 9 -7 9 C-7 8.01 -7 7.02 -7 6 C-6.01 6 -5.02 6 -4 6 C-3.67 5.01 -3.34 4.02 -3 3 C-2.01 2.34 -1.02 1.68 0 1 C0 0.67 0 0.34 0 0 Z " fill="#42602F" transform="translate(70,43)"/>
<path d="M0 0 C0.33 0 0.66 0 1 0 C1.02578125 0.62648437 1.0515625 1.25296875 1.078125 1.8984375 C1.13484375 2.71570313 1.1915625 3.53296875 1.25 4.375 C1.29640625 5.18710938 1.3428125 5.99921875 1.390625 6.8359375 C1.79543948 9.13635748 1.79543948 9.13635748 3.796875 10.2890625 C6.24861906 11.20473425 6.24861906 11.20473425 10 11 C10 11.66 10 12.32 10 13 C8.52031676 12.85950482 7.04125484 12.71245174 5.5625 12.5625 C4.73878906 12.48128906 3.91507812 12.40007812 3.06640625 12.31640625 C1 12 1 12 0 11 C-0.07226502 9.14712498 -0.0838122 7.29166122 -0.0625 5.4375 C-0.05347656 4.42558594 -0.04445313 3.41367188 -0.03515625 2.37109375 C-0.02355469 1.58863281 -0.01195313 0.80617187 0 0 Z " fill="#BDE928" transform="translate(81,138)"/>
<path d="M0 0 C2.31309705 0.11341637 4.62550185 0.24103807 6.9375 0.375 C8.86916016 0.47941406 8.86916016 0.47941406 10.83984375 0.5859375 C12.40412109 0.79089844 12.40412109 0.79089844 14 1 C14.33 1.66 14.66 2.32 15 3 C12.87561661 3.08078641 10.7503677 3.13909141 8.625 3.1875 C7.44164062 3.22230469 6.25828125 3.25710937 5.0390625 3.29296875 C3.53472656 3.14794922 3.53472656 3.14794922 2 3 C1.34 2.01 0.68 1.02 0 0 Z " fill="#BEEE1F" transform="translate(122,144)"/>
<path d="M0 0 C0.66 0.33 1.32 0.66 2 1 C0.73034469 2.43854058 -0.54077218 3.87579127 -1.8125 5.3125 C-2.52019531 6.11300781 -3.22789063 6.91351563 -3.95703125 7.73828125 C-5.59337122 9.54983162 -7.25272168 11.29681703 -9 13 C-9 9 -9 9 -7.0625 6.9375 C-6.381875 6.298125 -5.70125 5.65875 -5 5 C-4.67 4.01 -4.34 3.02 -4 2 C-2.0625 0.75 -2.0625 0.75 0 0 Z " fill="#BFE638" transform="translate(71,69)"/>
<path d="M0 0 C1.4540625 0.0309375 1.4540625 0.0309375 2.9375 0.0625 C1.96183888 1.23209987 0.981875 2.39811177 0 3.5625 C-0.54527344 4.2121875 -1.09054688 4.861875 -1.65234375 5.53125 C-2.11769531 6.0365625 -2.58304688 6.541875 -3.0625 7.0625 C-3.3925 7.0625 -3.7225 7.0625 -4.0625 7.0625 C-4.10504356 5.06295254 -4.10330783 3.06208364 -4.0625 1.0625 C-3.0625 0.0625 -3.0625 0.0625 0 0 Z " fill="#374020" transform="translate(154.0625,147.9375)"/>
<path d="M0 0 C2.125 0.9375 2.125 0.9375 4 2 C3.67 3.32 3.34 4.64 3 6 C1.35 5.67 -0.3 5.34 -2 5 C-2 3.68 -2 2.36 -2 1 C-1.34 0.67 -0.68 0.34 0 0 Z " fill="#BCF309" transform="translate(101,121)"/>
<path d="M0 0 C2.125 0.375 2.125 0.375 4 1 C3.505 1.45375 3.01 1.9075 2.5 2.375 C0.77390663 3.87635519 0.77390663 3.87635519 1 6 C-0.98 6.33 -2.96 6.66 -5 7 C-3.47793991 4.37098712 -2.15634036 2.15634036 0 0 Z " fill="#BCF206" transform="translate(91,99)"/>
<path d="M0 0 C1.58467728 0.28427417 3.1677057 0.57774818 4.75 0.875 C6.07257813 1.11863281 6.07257813 1.11863281 7.421875 1.3671875 C10 2 10 2 14 4 C10.37 4 6.74 4 3 4 C2.67 3.01 2.34 2.02 2 1 C1.34 0.67 0.68 0.34 0 0 Z " fill="#405D2E" transform="translate(84,185)"/>
<path d="M0 0 C4.23429756 1.31061591 8.07407404 2.94356259 12 5 C12 5.33 12 5.66 12 6 C10.02 6.33 8.04 6.66 6 7 C6 6.01 6 5.02 6 4 C3.03 3.505 3.03 3.505 0 3 C0 2.01 0 1.02 0 0 Z " fill="#483C40" transform="translate(155,12)"/>
<path d="M0 0 C1.65 0.33 3.3 0.66 5 1 C2.74259377 3.33524782 0.7194239 5.18705073 -2 7 C-4.1875 6.625 -4.1875 6.625 -6 6 C-5.38125 5.7525 -4.7625 5.505 -4.125 5.25 C-1.64931313 3.79371361 -1.04874998 2.62187494 0 0 Z " fill="#3D2F33" transform="translate(167,203)"/>
<path d="M0 0 C4.9723422 1.49170266 9.41845739 3.60457417 14 6 C10.08428299 7.305239 8.96107003 6.32239848 5.3125 4.5625 C4.31863281 4.08941406 3.32476562 3.61632812 2.30078125 3.12890625 C1.54152344 2.75636719 0.78226562 2.38382813 0 2 C0 1.34 0 0.68 0 0 Z " fill="#456525" transform="translate(70,178)"/>
<path d="M0 0 C-5.01989102 4.11888494 -8.59858988 4.51211281 -15 4 C-12.18438333 2.52790818 -9.38026161 1.34273182 -6.375 0.3125 C-5.59898437 0.04050781 -4.82296875 -0.23148438 -4.0234375 -0.51171875 C-2 -1 -2 -1 0 0 Z " fill="#B6DC38" transform="translate(136,166)"/>
<path d="M0 0 C-2.64 1.98 -5.28 3.96 -8 6 C-8.66 5.67 -9.32 5.34 -10 5 C-10 4.34 -10 3.68 -10 3 C-9.01 2.67 -8.02 2.34 -7 2 C-6.67 1.34 -6.34 0.68 -6 0 C-2.49056604 -1.24528302 -2.49056604 -1.24528302 0 0 Z " fill="#3C4A16" transform="translate(150,156)"/>
<path d="M0 0 C6.42527261 -0.48492623 6.42527261 -0.48492623 9 1.6875 C10.2406034 4.55639535 9.89942821 6.05641676 9 9 C8.67 9 8.34 9 8 9 C8 7.02 8 5.04 8 3 C7.01 3 6.02 3 5 3 C5 2.34 5 1.68 5 1 C3.02 1.33 1.04 1.66 -1 2 C-0.67 1.34 -0.34 0.68 0 0 Z " fill="#B5D745" transform="translate(99,117)"/>
<path d="M0 0 C2.1446143 2.1446143 2.44564603 3.01739998 3.125 5.875 C3.29257813 6.55304688 3.46015625 7.23109375 3.6328125 7.9296875 C4 10 4 10 4 14 C3.34 14 2.68 14 2 14 C1.66179834 12.4176994 1.32964061 10.83410625 1 9.25 C0.814375 8.36828125 0.62875 7.4865625 0.4375 6.578125 C0 4 0 4 0 0 Z " fill="#AEDB3C" transform="translate(184,87)"/>
<path d="M0 0 C1.32 0 2.64 0 4 0 C5.2380014 3.57644848 4.74926071 6.33694766 4 10 C3.34 9.67 2.68 9.34 2 9 C1.3671875 6.93359375 1.3671875 6.93359375 0.875 4.4375 C0.70742187 3.61121094 0.53984375 2.78492187 0.3671875 1.93359375 C0.24601563 1.29550781 0.12484375 0.65742187 0 0 Z " fill="#BEEF12" transform="translate(167,92)"/>
<path d="M0 0 C0 0.66 0 1.32 0 2 C-4.67201205 3.20568053 -9.21496292 3.09382426 -14 3 C-14 2.67 -14 2.34 -14 2 C-9.15758367 0.66416101 -5.06562383 -0.25328119 0 0 Z " fill="#3D2D30" transform="translate(140,218)"/>
<path d="M0 0 C0.99 0.33 1.98 0.66 3 1 C3 2.65 3 4.3 3 6 C3.66 6.33 4.32 6.66 5 7 C4.67 7.99 4.34 8.98 4 10 C3.01 10 2.02 10 1 10 C0.67 6.7 0.34 3.4 0 0 Z " fill="#BFEF1E" transform="translate(108,86)"/>
<path d="M0 0 C1 2 1 2 0.22265625 4.6015625 C-0.16019531 5.59929687 -0.54304687 6.59703125 -0.9375 7.625 C-1.50791016 9.12933594 -1.50791016 9.12933594 -2.08984375 10.6640625 C-2.39019531 11.43492188 -2.69054687 12.20578125 -3 13 C-3.66 13 -4.32 13 -5 13 C-4.48474397 7.71862571 -2.74522883 4.42778844 0 0 Z " fill="#38292F" transform="translate(15,61)"/>
<path d="M0 0 C3.94727588 -0.17942163 6.5980513 -0.09350689 10 2 C10 2.99 10 3.98 10 5 C8.51800098 4.55090939 7.03944764 4.09043436 5.5625 3.625 C4.73878906 3.36976562 3.91507813 3.11453125 3.06640625 2.8515625 C1 2 1 2 0 0 Z " fill="#BDE433" transform="translate(131,57)"/>
<path d="M0 0 C0.99 0 1.98 0 3 0 C1.68775452 3.93673644 0.08089673 6.22719294 -3 9 C-2.5020163 5.26512223 -2.12508244 3.18762365 0 0 Z " fill="#3C3236" transform="translate(23,47)"/>
<path d="M0 0 C2.5 1.375 2.5 1.375 5 3 C5 3.66 5 4.32 5 5 C3.02 5.33 1.04 5.66 -1 6 C-1 3 -1 3 0 0 Z " fill="#B7EB21" transform="translate(154,48)"/>
<path d="M0 0 C1.32 0.66 2.64 1.32 4 2 C2.07423885 4.43929746 0.19909405 6.80090595 -2 9 C-2.33 8.01 -2.66 7.02 -3 6 C-2.34 6 -1.68 6 -1 6 C-1.0309375 4.7934375 -1.0309375 4.7934375 -1.0625 3.5625 C-1 1 -1 1 0 0 Z " fill="#3E4C1D" transform="translate(83,98)"/>
<path d="M0 0 C0.66 0 1.32 0 2 0 C1.54554036 1.41791408 1.08625056 2.83428046 0.625 4.25 C0.36976562 5.03890625 0.11453125 5.8278125 -0.1484375 6.640625 C-0.95173667 8.86627958 -1.89711662 10.90931672 -3 13 C-3.38281159 7.76824163 -2.21854707 4.62197306 0 0 Z " fill="#BCE334" transform="translate(58,86)"/>
<path d="M0 0 C0.99 0 1.98 0 3 0 C3 0.66 3 1.32 3 2 C3.66 2 4.32 2 5 2 C7.1875 3.75 7.1875 3.75 9 6 C8.61328125 8.140625 8.61328125 8.140625 8 10 C6.85157077 8.71064081 5.70633773 7.41843421 4.5625 6.125 C3.92441406 5.40570313 3.28632813 4.68640625 2.62890625 3.9453125 C1 2 1 2 0 0 Z " fill="#B5D839" transform="translate(151,70)"/>
<path d="M0 0 C0.66 0 1.32 0 2 0 C1.67 1.98 1.34 3.96 1 6 C0.01 6.33 -0.98 6.66 -2 7 C-2.66 7.66 -3.32 8.32 -4 9 C-4.33 8.01 -4.66 7.02 -5 6 C-3.68 5.67 -2.36 5.34 -1 5 C-0.67 3.35 -0.34 1.7 0 0 Z " fill="#B9EE1C" transform="translate(175,150)"/>
<path d="M0 0 C3.4375 1.1875 3.4375 1.1875 4.4375 3.1875 C1.1375 2.8575 -2.1625 2.5275 -5.5625 2.1875 C-5.5625 1.5275 -5.5625 0.8675 -5.5625 0.1875 C-3.5625 -0.8125 -3.5625 -0.8125 0 0 Z " fill="#BDF117" transform="translate(91.5625,182.8125)"/>
<path d="M0 0 C3.9945793 2.05127045 6.10267152 3.88912162 8 8 C7.67 8.66 7.34 9.32 7 10 C6.67 9.01 6.34 8.02 6 7 C5.01 6.67 4.02 6.34 3 6 C3 5.01 3 4.02 3 3 C2.01 2.67 1.02 2.34 0 2 C0 1.34 0 0.68 0 0 Z " fill="#BAEB35" transform="translate(171,66)"/>
<path d="M0 0 C2.97 0.495 2.97 0.495 6 1 C4.35 2.98 2.7 4.96 1 7 C0.31292445 4.50935112 0 2.62113708 0 0 Z " fill="#466232" transform="translate(56,52)"/>
<path d="M0 0 C0.66 0.66 1.32 1.32 2 2 C1.01 1.67 0.02 1.34 -1 1 C-0.67 0.67 -0.34 0.34 0 0 Z M-3 2 C-2.34 2.33 -1.68 2.66 -1 3 C-4.465 5.97 -4.465 5.97 -8 9 C-8 7.68 -8 6.36 -8 5 C-5.625 3.1875 -5.625 3.1875 -3 2 Z " fill="#393536" transform="translate(36,36)"/>
<path d="M0 0 C2.60608273 2.5162178 4.89381685 5.05134359 7 8 C6.67 8.66 6.34 9.32 6 10 C2.64888166 7.76592111 1.18446044 6.73784176 0.1875 2.75 C0.125625 1.8425 0.06375 0.935 0 0 Z " fill="#466527" transform="translate(45,152)"/>
<path d="M0 0 C0.66 0 1.32 0 2 0 C2 2.31 2 4.62 2 7 C1.01 7.33 0.02 7.66 -1 8 C-0.67 5.36 -0.34 2.72 0 0 Z " fill="#3E3036" transform="translate(5,84)"/>
<path d="M0 0 C0.66 0 1.32 0 2 0 C2 0.66 2 1.32 2 2 C4.64 2.33 7.28 2.66 10 3 C10 3.33 10 3.66 10 4 C2.57142857 4.28571429 2.57142857 4.28571429 -1 2 C-0.67 1.34 -0.34 0.68 0 0 Z " fill="#3A292F" transform="translate(81,216)"/>
<path d="M0 0 C1.32 0.33 2.64 0.66 4 1 C3.01 2.485 3.01 2.485 2 4 C1.83286431 6.62531524 1.83286431 6.62531524 2 9 C1.34 9 0.68 9 0 9 C0 6.03 0 3.06 0 0 Z " fill="#394516" transform="translate(95,117)"/>
<path d="M0 0 C2.72107452 2.3500189 3.96702492 4.55674975 5 8 C4.67 8.99 4.34 9.98 4 11 C1.52214277 7.33708062 0.51035831 4.3890815 0 0 Z " fill="#AEDA44" transform="translate(179,76)"/>
<path d="M0 0 C1.31602523 0.61754259 2.62773556 1.24428742 3.9375 1.875 C4.66839844 2.22304688 5.39929688 2.57109375 6.15234375 2.9296875 C8 4 8 4 9 6 C5.625 5.25 5.625 5.25 2 4 C0.7734375 1.921875 0.7734375 1.921875 0 0 Z " fill="#3B4A11" transform="translate(134,59)"/>
<path d="M0 0 C1.32 0.33 2.64 0.66 4 1 C4 1.66 4 2.32 4 3 C4.99 3 5.98 3 7 3 C7 3.66 7 4.32 7 5 C4.03824877 4.38722388 2.61941217 3.74627478 0 2 C0 1.34 0 0.68 0 0 Z " fill="#3C2F34" transform="translate(44,198)"/>
<path d="M0 0 C2.4375 0.375 2.4375 0.375 5 1 C5.33 1.66 5.66 2.32 6 3 C3.69 3 1.38 3 -1 3 C-0.67 2.01 -0.34 1.02 0 0 Z " fill="#4A571E" transform="translate(111,70)"/>
</svg>
